<svg width="46" height="46" viewBox="0 0 46 46" fill="none" xmlns="http://www.w3.org/2000/svg">
<g filter="url(#filter0_d_4_48)">
<circle cx="22.9998" cy="23" r="13" fill="white"/>
</g>
<path fill-rule="evenodd" clip-rule="evenodd" d="M17.6247 22.8573C17.4589 22.8573 17.3 22.925 17.1828 23.0455C17.0656 23.1661 16.9998 23.3295 16.9998 23.5C16.9998 23.6705 17.0656 23.8339 17.1828 23.9545C17.3 24.075 17.4589 24.1427 17.6247 24.1427H24.8651L22.1817 26.9014C22.1236 26.9611 22.0775 27.0321 22.046 27.1102C22.0146 27.1882 21.9984 27.2719 21.9984 27.3564C21.9984 27.441 22.0146 27.5246 22.046 27.6027C22.0775 27.6808 22.1236 27.7517 22.1817 27.8115C22.2398 27.8713 22.3088 27.9187 22.3847 27.951C22.4606 27.9834 22.542 28 22.6241 28C22.7063 28 22.7877 27.9834 22.8636 27.951C22.9395 27.9187 23.0085 27.8713 23.0666 27.8115L26.8162 23.9551C26.8744 23.8954 26.9205 23.8244 26.952 23.7463C26.9835 23.6683 26.9998 23.5845 26.9998 23.5C26.9998 23.4155 26.9835 23.3317 26.952 23.2537C26.9205 23.1756 26.8744 23.1046 26.8162 23.0449L23.0666 19.1885C23.0085 19.1287 22.9395 19.0813 22.8636 19.049C22.7877 19.0166 22.7063 19 22.6241 19C22.542 19 22.4606 19.0166 22.3847 19.049C22.3088 19.0813 22.2398 19.1287 22.1817 19.1885C22.1236 19.2483 22.0775 19.3192 22.046 19.3973C22.0146 19.4754 21.9984 19.559 21.9984 19.6436C21.9984 19.7281 22.0146 19.8118 22.046 19.8898C22.0775 19.9679 22.1236 20.0389 22.1817 20.0986L24.8651 22.8573H17.6247Z" fill="black"/>
<defs>
<filter id="filter0_d_4_48" x="-0.000244141" y="0" width="46" height="46" filterUnits="userSpaceOnUse" color-interpolation-filters="sRGB">
<feFlood flood-opacity="0" result="BackgroundImageFix"/>
<feColorMatrix in="SourceAlpha" type="matrix" values="0 0 0 0 0 0 0 0 0 0 0 0 0 0 0 0 0 0 127 0" result="hardAlpha"/>
<feOffset/>
<feGaussianBlur stdDeviation="5"/>
<feComposite in2="hardAlpha" operator="out"/>
<feColorMatrix type="matrix" values="0 0 0 0 0 0 0 0 0 0 0 0 0 0 0 0 0 0 0.15 0"/>
<feBlend mode="normal" in2="BackgroundImageFix" result="effect1_dropShadow_4_48"/>
<feBlend mode="normal" in="SourceGraphic" in2="effect1_dropShadow_4_48" result="shape"/>
</filter>
</defs>
</svg>
