<svg width="46" height="46" viewBox="0 0 46 46" fill="none" xmlns="http://www.w3.org/2000/svg">
<g filter="url(#filter0_d_4_49)">
<circle cx="23" cy="23" r="13" transform="rotate(-180 23 23)" fill="white"/>
</g>
<path fill-rule="evenodd" clip-rule="evenodd" d="M28.3751 23.1427C28.5408 23.1427 28.6998 23.075 28.817 22.9545C28.9342 22.8339 29 22.6705 29 22.5C29 22.3295 28.9342 22.1661 28.817 22.0455C28.6998 21.925 28.5408 21.8573 28.3751 21.8573L21.1346 21.8573L23.8181 19.0986C23.8762 19.0389 23.9223 18.9679 23.9537 18.8898C23.9852 18.8117 24.0013 18.7281 24.0013 18.6436C24.0013 18.559 23.9852 18.4754 23.9537 18.3973C23.9223 18.3192 23.8762 18.2483 23.8181 18.1885C23.76 18.1287 23.691 18.0813 23.6151 18.049C23.5392 18.0166 23.4578 18 23.3756 18C23.2935 18 23.2121 18.0166 23.1362 18.049C23.0603 18.0813 22.9913 18.1287 22.9332 18.1885L19.1836 22.0449C19.1254 22.1046 19.0792 22.1756 19.0477 22.2537C19.0162 22.3317 19 22.4155 19 22.5C19 22.5845 19.0162 22.6683 19.0477 22.7463C19.0792 22.8244 19.1254 22.8954 19.1836 22.9551L22.9332 26.8115C22.9913 26.8713 23.0603 26.9187 23.1362 26.951C23.2121 26.9834 23.2935 27 23.3756 27C23.4578 27 23.5392 26.9834 23.6151 26.951C23.691 26.9187 23.76 26.8713 23.8181 26.8115C23.8762 26.7517 23.9223 26.6808 23.9537 26.6027C23.9852 26.5246 24.0013 26.441 24.0013 26.3564C24.0013 26.2719 23.9852 26.1882 23.9537 26.1102C23.9223 26.0321 23.8762 25.9611 23.8181 25.9014L21.1346 23.1427L28.3751 23.1427Z" fill="black"/>
<defs>
<filter id="filter0_d_4_49" x="0" y="0" width="46" height="46" filterUnits="userSpaceOnUse" color-interpolation-filters="sRGB">
<feFlood flood-opacity="0" result="BackgroundImageFix"/>
<feColorMatrix in="SourceAlpha" type="matrix" values="0 0 0 0 0 0 0 0 0 0 0 0 0 0 0 0 0 0 127 0" result="hardAlpha"/>
<feOffset/>
<feGaussianBlur stdDeviation="5"/>
<feComposite in2="hardAlpha" operator="out"/>
<feColorMatrix type="matrix" values="0 0 0 0 0 0 0 0 0 0 0 0 0 0 0 0 0 0 0.15 0"/>
<feBlend mode="normal" in2="BackgroundImageFix" result="effect1_dropShadow_4_49"/>
<feBlend mode="normal" in="SourceGraphic" in2="effect1_dropShadow_4_49" result="shape"/>
</filter>
</defs>
</svg>
