<svg width="144" height="35" viewBox="0 0 144 35" fill="none" xmlns="http://www.w3.org/2000/svg">
<path d="M40.998 16.9141H49.4355V17.7051H47.5312V25L43.9863 24.3848C42.6973 24.9707 41.2715 25.2637 39.709 25.2637C37.7363 25.2637 35.9883 24.7852 34.4648 23.8281C31.9453 22.207 30.6855 19.6484 30.6855 16.1523C30.6855 13.4375 31.4863 11.2598 33.0879 9.61914C34.7676 7.95898 36.9453 7.12891 39.6211 7.12891C41.1055 7.12891 42.5215 7.41211 43.8691 7.97852L46.623 7.42188L46.7402 13.6328H45.832C45.832 13.6133 45.832 13.5938 45.832 13.5742C45.0898 9.88281 43.3223 8.03711 40.5293 8.03711C40.2949 8.03711 40.0605 8.04688 39.8262 8.06641C36.7598 8.39844 35.2266 11.1328 35.2266 16.2695C35.2266 17.9883 35.3828 19.4336 35.6953 20.6055C36.3789 23.1055 37.9121 24.3555 40.2949 24.3555C41.5254 24.3555 42.5898 24.0039 43.4883 23.3008V17.7051H40.998V16.9141ZM58.7227 8.21289H57.0527V16.3867H58.6055C60.6953 16.3672 61.7598 15.0098 61.7988 12.3145C61.7793 9.61914 60.7539 8.25195 58.7227 8.21289ZM59.9824 25H50.6074V24.209H52.9512V8.21289H50.6074V7.42188H60.3926C61.6816 7.42188 62.7949 7.64648 63.7324 8.0957C65.373 8.89648 66.1934 10.2148 66.1934 12.0508C66.1934 12.793 66.0664 13.4668 65.8125 14.0723C64.9531 16.2012 62.834 17.2656 59.4551 17.2656H57.0527V24.209H59.1914C59.6016 24.248 59.8652 24.5117 59.9824 25ZM89.7188 7.42188V8.21289H87.375V24.209H88.9277C89.3379 24.248 89.6016 24.5117 89.7188 25H81.0762V24.209H83.4199V10.293L77.1211 25.293H76.5938L70.3535 13.1641V24.209H71.9062C72.3164 24.248 72.5801 24.5117 72.6973 25H66.7793V24.209H69.123V8.21289H66.7793V7.42188H72.0234L78.1758 20.0195L83.4199 7.42188H89.7188ZM101.379 25.293C99.8164 25.1953 98.8301 24.3066 98.4199 22.627C98.3223 22.9004 98.1953 23.1641 98.0391 23.418C97.2578 24.668 96.0371 25.293 94.377 25.293C93.8301 25.293 93.332 25.2246 92.8828 25.0879C91.3594 24.5996 90.5977 23.4863 90.5977 21.748C90.6172 19.1895 93.1367 17.8613 98.1562 17.7637V15.8594C98.1562 15.293 98.1172 14.8047 98.0391 14.3945C97.8438 13.2812 97.2871 12.7246 96.3691 12.7246C96.0957 12.7246 95.8516 12.7734 95.6367 12.8711C95.3047 13.0664 95.0312 13.5547 94.8164 14.3359C94.7383 14.6094 94.6797 14.8047 94.6406 14.9219C94.3477 15.7422 93.7812 16.1523 92.9414 16.1523C92.7461 16.1523 92.5605 16.123 92.3848 16.0645C91.6621 15.8691 91.3008 15.3906 91.3008 14.6289C91.3008 14.2969 91.3887 13.9844 91.5645 13.6914C92.248 12.5391 93.918 11.9629 96.5742 11.9629C97.2578 11.9629 97.8926 12.0312 98.4785 12.168C100.744 12.7344 101.877 14.2383 101.877 16.6797V22.8027C101.877 23.7402 102.092 24.2285 102.521 24.2676C103.088 24.248 103.43 23.5645 103.547 22.2168L104.309 22.2461C104.25 22.8516 104.162 23.3496 104.045 23.7402C103.693 24.7754 102.805 25.293 101.379 25.293ZM95.9004 24.0332C96.0371 24.0332 96.1934 24.0039 96.3691 23.9453C97.1895 23.6328 97.7852 22.793 98.1562 21.4258V18.584C97.2773 18.623 96.5547 18.7305 95.9883 18.9062C94.9336 19.2969 94.4062 20.1367 94.4062 21.4258C94.4258 23.125 94.9238 23.9941 95.9004 24.0332ZM109.436 16.9141C109.436 18.2617 109.504 19.1992 109.641 19.7266C109.875 20.625 110.471 21.0742 111.428 21.0742C112.014 21.0742 112.473 20.9082 112.805 20.5762C113.273 20.0488 113.508 18.7988 113.508 16.8262C113.508 15.5371 113.439 14.6191 113.303 14.0723C113.049 13.1738 112.434 12.7246 111.457 12.7246C110.852 12.7246 110.393 12.9004 110.08 13.252C109.65 13.7598 109.436 14.9805 109.436 16.9141ZM111.574 11.9629C112.941 11.9629 114.094 12.2559 115.031 12.8418C115.109 12.627 115.197 12.4121 115.295 12.1973C115.861 11.0254 116.652 10.4395 117.668 10.4395C118.039 10.4395 118.381 10.5078 118.693 10.6445C119.377 10.9375 119.719 11.4355 119.719 12.1387C119.719 12.2363 119.709 12.334 119.689 12.4316C119.553 12.9785 119.191 13.252 118.605 13.252C118.352 13.252 118.078 13.1348 117.785 12.9004C117.414 12.5684 117.102 12.4023 116.848 12.4023C116.379 12.4219 115.969 12.7051 115.617 13.252C116.672 14.1699 117.209 15.3418 117.229 16.7676C117.229 17.8223 116.916 18.7793 116.291 19.6387C115.197 21.1035 113.576 21.8359 111.428 21.8359L108.293 21.8066C108.215 21.8066 108.137 21.8164 108.059 21.8359C107.57 21.8945 107.326 22.1484 107.326 22.5977C107.326 22.6562 107.336 22.7148 107.355 22.7734C107.453 23.2031 107.756 23.4277 108.264 23.4473L114.328 23.5645C114.602 23.5645 114.865 23.584 115.119 23.623C117.268 23.8965 118.342 25.0195 118.342 26.9922C118.342 27.5 118.195 27.9883 117.902 28.457C116.965 29.9609 114.895 30.7129 111.691 30.7129C110.363 30.7129 109.23 30.5371 108.293 30.1855C106.906 29.6582 106.213 28.8672 106.213 27.8125C106.213 27.2266 106.467 26.6309 106.975 26.0254C106.271 25.4395 105.91 24.6777 105.891 23.7402C105.891 23.3496 105.969 22.959 106.125 22.5684C106.574 21.5332 107.375 21.0254 108.527 21.0449H108.557C108.283 20.8887 108.02 20.7129 107.766 20.5176C106.398 19.4629 105.715 18.2324 105.715 16.8262C105.715 15.8301 106.008 14.9316 106.594 14.1309C107.648 12.6855 109.309 11.9629 111.574 11.9629ZM111.691 29.9219C112.609 29.9219 113.449 29.8438 114.211 29.6875C116.027 29.3359 116.936 28.7012 116.936 27.7832C116.936 27.5879 116.896 27.4219 116.818 27.2852C116.623 26.9336 115.959 26.7578 114.826 26.7578L108.908 26.6992C108.479 26.6992 108.068 26.6211 107.678 26.4648C107.385 26.875 107.238 27.2852 107.238 27.6953C107.238 27.9102 107.287 28.125 107.385 28.3398C107.873 29.3945 109.309 29.9219 111.691 29.9219ZM123.557 24.209L127.307 24.2383L127.219 24.209C128.43 24.1895 129.221 23.5645 129.592 22.334L130.207 20.0195H130.969L130.91 25H119.631V24.3555L127.453 13.1934H123.967C123.146 13.2129 122.502 13.6816 122.033 14.5996L121.037 16.7676H120.305L120.51 12.4023H131.057V13.0176L123.557 24.209Z" fill="#62614D"/>
<path d="M10.7353 10.1419C12.0522 10.1419 13.346 10.596 14.3857 11.4197C14.7553 11.7122 15.2944 11.6545 15.5909 11.2811C15.8836 10.9116 15.822 10.3728 15.4523 10.0764C14.1123 9.01416 12.4373 8.42529 10.7353 8.42529C6.55738 8.42529 3.16113 11.8238 3.16113 15.9959C3.16113 20.1681 6.56123 23.5666 10.7353 23.5666C12.8993 23.5666 14.9633 22.6429 16.3995 21.0302C16.7153 20.6761 16.6806 20.1334 16.3264 19.8217C15.9721 19.5061 15.4292 19.5407 15.1173 19.8948C14.0083 21.1418 12.4103 21.8577 10.7353 21.8577C7.50463 21.8577 4.87466 19.229 4.87466 15.9998C4.87466 12.7706 7.50463 10.1419 10.7353 10.1419Z" fill="#C1B18F"/>
<path d="M20.7969 17.5588C20.3386 17.4472 19.8727 17.732 19.761 18.19C18.7483 22.366 15.0363 25.2834 10.7352 25.2834C6.43406 25.2834 2.67971 22.339 1.69396 18.1246C1.58614 17.6627 1.12407 17.3779 0.661992 17.4857C0.199918 17.5934 -0.0850279 18.0553 0.0227894 18.5172C1.19338 23.5129 5.59848 27 10.7352 27C15.8719 27 20.2308 23.5437 21.4322 18.5941C21.5439 18.1323 21.2589 17.6704 20.8007 17.5588H20.7969Z" fill="#62614D"/>
<path d="M0.804388 13.7445C0.889102 13.7715 0.977666 13.7869 1.06238 13.7869C1.42434 13.7869 1.76319 13.5521 1.87871 13.1903C3.10706 9.31839 6.66887 6.71658 10.7351 6.71658C14.8014 6.71658 18.1899 9.20292 19.4953 12.9093C19.503 12.9401 19.5145 12.9709 19.5222 13.0017C19.6801 13.4482 20.1653 13.683 20.6158 13.5252C21.0625 13.3674 21.2974 12.8786 21.1433 12.4321C21.1356 12.4013 21.1241 12.3705 21.1125 12.3359C19.5646 7.9482 15.3944 5 10.7351 5C6.07588 5 1.70158 8.08291 0.246049 12.6707C0.103576 13.121 0.353866 13.6021 0.804388 13.7484V13.7445Z" fill="#62614D"/>
<circle cx="140" cy="21" r="4" fill="#C1B18F"/>
</svg>
