<?xml version="1.0" encoding="UTF-8"?> <svg xmlns="http://www.w3.org/2000/svg" width="191" height="41" viewBox="0 0 191 41" fill="none"><path d="M79.03 13.31C81.67 13.31 83.89 14.51 84.58 17.09H88.63C88 12.62 84.13 9.71 79.12 9.71C72.52 9.71 68.17 14.45 68.17 21.11C68.17 27.86 72.46 32.33 78.61 32.33C81.58 32.33 84.07 31.16 85.27 29.48L85.51 32H88.75V19.67H78.55V23.06H85.18V23.15C85.18 26.66 82.87 28.76 79.06 28.76C75.01 28.76 72.19 26.09 72.19 21.2C72.19 16.46 74.68 13.31 79.03 13.31ZM101.567 24.44C105.947 24.44 108.827 21.47 108.827 17.24C108.827 12.95 105.977 10.07 101.567 10.07H92.8968V32H96.7368V24.44H101.567ZM100.817 13.49C103.367 13.49 104.807 14.81 104.807 17.21C104.807 19.61 103.397 21.02 100.757 21.02H96.7368V13.49H100.817Z" fill="#0166FF"></path><path d="M112.057 32H120.937C125.467 32 128.077 29.81 128.077 26.06C128.077 23.51 126.907 21.77 124.597 21.02C126.667 20.15 127.747 18.41 127.747 15.98C127.747 12.32 125.107 10.07 120.787 10.07H112.057V32ZM120.457 13.46C122.617 13.46 123.817 14.48 123.817 16.37C123.817 18.32 122.647 19.43 120.547 19.43H115.897V13.46H120.457ZM120.787 22.67C122.917 22.67 124.147 23.72 124.147 25.58C124.147 27.56 122.947 28.61 120.787 28.61H115.897V22.67H120.787ZM134.748 32V9.68H131.118V32H134.748ZM137.717 24.56C137.717 29.18 141.047 32.36 145.637 32.36C150.227 32.36 153.557 29.18 153.557 24.56C153.557 19.94 150.227 16.76 145.637 16.76C141.047 16.76 137.717 19.94 137.717 24.56ZM141.377 24.56C141.377 21.86 143.117 20.03 145.637 20.03C148.157 20.03 149.897 21.86 149.897 24.56C149.897 27.26 148.157 29.09 145.637 29.09C143.117 29.09 141.377 27.26 141.377 24.56ZM155.618 24.26C155.618 28.55 158.378 31.7 162.578 31.7C164.708 31.7 166.538 30.83 167.468 29.45V31.91C167.468 34.37 165.848 35.96 163.328 35.96C161.078 35.96 159.608 34.82 159.368 32.9H155.708C156.158 36.86 159.068 39.29 163.328 39.29C168.128 39.29 171.098 36.2 171.098 31.25V17.18H167.708L167.498 19.22C166.628 17.63 164.888 16.7 162.668 16.7C158.438 16.7 155.618 19.94 155.618 24.26ZM159.308 24.17C159.308 21.74 160.868 19.91 163.298 19.91C165.848 19.91 167.378 21.65 167.378 24.17C167.378 26.75 165.818 28.52 163.298 28.52C160.898 28.52 159.308 26.66 159.308 24.17Z" fill="black"></path><path d="M53.3719 14.5458C51.5389 14.4498 49.9118 15.3624 48.9918 16.776C48.1543 18.0592 46.6576 18.766 45.1267 18.766H41.0624C39.5246 18.766 38.0348 18.0592 37.1973 16.776C36.2773 15.3624 34.6502 14.4498 32.8172 14.5458C30.2976 14.6831 28.2312 16.824 28.1831 19.3493C28.1282 22.0942 30.3526 24.3518 33.0849 24.3518C34.609 24.3518 35.9752 23.6519 36.8746 22.5539C37.6778 21.5726 38.9273 21.0648 40.1974 21.0648H45.9848C47.2549 21.0648 48.5044 21.5726 49.3076 22.5539C50.207 23.6519 51.5732 24.3518 53.0973 24.3518C55.8365 24.3518 58.054 22.101 57.9991 19.3493C57.951 16.824 55.8846 14.6831 53.365 14.5527L53.3719 14.5458ZM33.0849 22.053C31.6432 22.053 30.4761 20.8796 30.4761 19.4454C30.4761 18.0112 31.6501 16.8309 33.0849 16.8309C34.5198 16.8309 35.7006 18.0043 35.7006 19.4454C35.7006 20.8864 34.5267 22.053 33.0849 22.053ZM53.0973 22.053C51.6556 22.053 50.4885 20.8796 50.4885 19.4454C50.4885 18.0112 51.6624 16.8309 53.0973 16.8309C54.5321 16.8309 55.713 18.0043 55.713 19.4454C55.713 20.8864 54.539 22.053 53.0973 22.053Z" fill="#0166FF"></path><path d="M13.8895 21.4011C14.5829 21.4011 15.139 20.7835 15.0223 20.0629C14.933 19.5002 14.4044 19.1091 13.8277 19.1091H12.5027C11.0678 19.1091 9.7909 18.32 9.00826 17.1191C8.08831 15.7055 6.46124 14.7928 4.6282 14.8889C2.11551 15.0261 0.0490527 17.1671 0.000995692 19.6924C-0.0539266 22.4372 2.17043 24.6949 4.90281 24.6949C6.42691 24.6949 7.7931 23.9949 8.69246 22.897C9.43391 21.9912 10.498 21.4079 11.6651 21.4079H13.8826L13.8895 21.4011ZM4.90968 22.3961C3.46797 22.3961 2.294 21.2226 2.294 19.7885C2.294 18.3543 3.46797 17.174 4.90968 17.174C6.35139 17.174 7.51849 18.3474 7.51849 19.7885C7.51849 21.2295 6.34453 22.3961 4.90968 22.3961Z" fill="#0166FF"></path><path d="M30.0709 10.1678C32.4189 10.1678 34.7256 10.9775 36.5792 12.446C37.2383 12.9675 38.1994 12.8646 38.7281 12.199C39.2498 11.5402 39.14 10.5795 38.4809 10.0511C36.0918 8.1572 33.1054 7.1073 30.0709 7.1073C22.6221 7.1073 16.5669 13.1665 16.5669 20.6051C16.5669 28.0436 22.6289 34.1029 30.0709 34.1029C33.9292 34.1029 37.609 32.4559 40.1698 29.5807C40.7327 28.9494 40.6709 27.9818 40.0393 27.426C39.4077 26.8633 38.4397 26.9251 37.8836 27.5564C35.9064 29.7797 33.0573 31.0561 30.0709 31.0561C24.3109 31.0561 19.622 26.3692 19.622 20.6119C19.622 14.8546 24.3109 10.1678 30.0709 10.1678Z" fill="#0166FF"></path><path d="M48.01 23.3911C47.1931 23.1921 46.3624 23.6999 46.1633 24.5164C44.3577 31.9618 37.7396 37.1633 30.071 37.1633C22.4025 37.1633 15.7088 31.9138 13.9513 24.3998C13.7591 23.5763 12.9353 23.0685 12.1114 23.2607C11.2876 23.4528 10.7796 24.2763 10.9718 25.0997C13.0588 34.0067 20.9127 40.2238 30.071 40.2238C39.2293 40.2238 47.0008 34.0616 49.1428 25.237C49.3419 24.4135 48.8339 23.5901 48.0169 23.3911H48.01Z" fill="#0166FF"></path><path d="M12.3654 16.5907C12.5164 16.6388 12.6743 16.6662 12.8253 16.6662C13.4707 16.6662 14.0748 16.2476 14.2808 15.6026C16.4708 8.69929 22.8212 4.0605 30.0709 4.0605C37.3207 4.0605 43.3622 8.49343 45.6895 15.1016C45.7032 15.1565 45.7238 15.2114 45.7375 15.2663C46.019 16.0623 46.884 16.4809 47.6873 16.1996C48.4837 15.9182 48.9024 15.0467 48.6278 14.2507C48.6141 14.1958 48.5935 14.1409 48.5729 14.0792C45.8131 6.25638 38.378 1 30.0709 1C21.7639 1 13.965 6.49655 11.3699 14.6762C11.1159 15.4791 11.5621 16.3368 12.3654 16.5976V16.5907Z" fill="#0166FF"></path><rect x="160" y="4" width="31" height="16" rx="8" fill="#0166FF"></rect><path d="M168.7 13.48H167.09V16H165.81V8.69H168.7C170.17 8.69 171.12 9.65 171.12 11.08C171.12 12.49 170.16 13.48 168.7 13.48ZM168.45 9.83H167.09V12.34H168.43C169.31 12.34 169.78 11.87 169.78 11.07C169.78 10.27 169.3 9.83 168.45 9.83ZM173.477 16H172.197V8.69H174.987C176.647 8.69 177.617 9.53 177.617 10.97C177.617 11.95 177.157 12.65 176.297 13L177.687 16H176.287L175.047 13.27H173.477V16ZM173.477 9.83V12.14H174.987C175.797 12.14 176.277 11.71 176.277 10.97C176.277 10.24 175.797 9.83 174.987 9.83H173.477ZM185.546 12.34C185.546 14.56 184.086 16.12 181.986 16.12C179.896 16.12 178.456 14.57 178.456 12.34C178.456 10.12 179.906 8.56 181.996 8.56C184.086 8.56 185.546 10.11 185.546 12.34ZM184.196 12.34C184.196 10.78 183.336 9.79 181.996 9.79C180.656 9.79 179.796 10.78 179.796 12.34C179.796 13.9 180.656 14.89 181.996 14.89C183.336 14.89 184.196 13.88 184.196 12.34Z" fill="white"></path></svg> 