<?xml version="1.0" encoding="UTF-8"?> <svg xmlns="http://www.w3.org/2000/svg" width="172" height="40" viewBox="0 0 172 40" fill="none"><path d="M27.375 39.07C25.6017 39.07 23.8867 38.8483 22.23 38.405C20.5967 37.985 19.2317 37.3433 18.135 36.48L20.305 32.56C21.0983 33.2133 22.1017 33.7267 23.315 34.1C24.5517 34.4967 25.765 34.695 26.955 34.695C28.8917 34.695 30.2917 34.2633 31.155 33.4C32.0417 32.5367 32.485 31.2533 32.485 29.55V26.715L32.835 21.99L32.765 17.23V13.17H37.945V28.85C37.945 32.35 37.035 34.9283 35.215 36.585C33.395 38.2417 30.7817 39.07 27.375 39.07ZM26.535 31.09C24.785 31.09 23.1983 30.7167 21.775 29.97C20.375 29.2 19.2433 28.1383 18.38 26.785C17.54 25.4083 17.12 23.81 17.12 21.99C17.12 20.1467 17.54 18.5483 18.38 17.195C19.2433 15.8183 20.375 14.7567 21.775 14.01C23.1983 13.2633 24.785 12.89 26.535 12.89C28.1217 12.89 29.5217 13.2167 30.735 13.87C31.9483 14.5 32.8933 15.4917 33.57 16.845C34.2467 18.175 34.585 19.89 34.585 21.99C34.585 24.0667 34.2467 25.7817 33.57 27.135C32.8933 28.465 31.9483 29.4567 30.735 30.11C29.5217 30.7633 28.1217 31.09 26.535 31.09ZM27.62 26.61C28.5767 26.61 29.4283 26.4233 30.175 26.05C30.9217 25.6533 31.505 25.105 31.925 24.405C32.345 23.705 32.555 22.9 32.555 21.99C32.555 21.0567 32.345 20.2517 31.925 19.575C31.505 18.875 30.9217 18.3383 30.175 17.965C29.4283 17.5683 28.5767 17.37 27.62 17.37C26.6633 17.37 25.8117 17.5683 25.065 17.965C24.3183 18.3383 23.7233 18.875 23.28 19.575C22.86 20.2517 22.65 21.0567 22.65 21.99C22.65 22.9 22.86 23.705 23.28 24.405C23.7233 25.105 24.3183 25.6533 25.065 26.05C25.8117 26.4233 26.6633 26.61 27.62 26.61ZM54.1568 32.28C52.5702 32.28 51.1818 31.93 49.9918 31.23C48.8018 30.53 47.8685 29.4683 47.1918 28.045C46.5385 26.5983 46.2118 24.7783 46.2118 22.585C46.2118 20.3683 46.5268 18.5483 47.1568 17.125C47.7868 15.7017 48.6968 14.64 49.8868 13.94C51.0768 13.24 52.5002 12.89 54.1568 12.89C55.9302 12.89 57.5168 13.2983 58.9168 14.115C60.3402 14.9083 61.4602 16.0283 62.2768 17.475C63.1168 18.9217 63.5368 20.625 63.5368 22.585C63.5368 24.5683 63.1168 26.2833 62.2768 27.73C61.4602 29.1767 60.3402 30.2967 58.9168 31.09C57.5168 31.8833 55.9302 32.28 54.1568 32.28ZM43.0268 38.79V13.17H48.2418V17.02L48.1368 22.62L48.4868 28.185V38.79H43.0268ZM53.2118 27.8C54.1218 27.8 54.9268 27.59 55.6268 27.17C56.3502 26.75 56.9218 26.155 57.3418 25.385C57.7852 24.5917 58.0068 23.6583 58.0068 22.585C58.0068 21.4883 57.7852 20.555 57.3418 19.785C56.9218 19.015 56.3502 18.42 55.6268 18C54.9268 17.58 54.1218 17.37 53.2118 17.37C52.3018 17.37 51.4852 17.58 50.7618 18C50.0385 18.42 49.4668 19.015 49.0468 19.785C48.6268 20.555 48.4168 21.4883 48.4168 22.585C48.4168 23.6583 48.6268 24.5917 49.0468 25.385C49.4668 26.155 50.0385 26.75 50.7618 27.17C51.4852 27.59 52.3018 27.8 53.2118 27.8Z" fill="#000063"></path><path d="M78.6369 12.89C80.1302 12.89 81.4602 13.1933 82.6269 13.8C83.8169 14.3833 84.7502 15.2933 85.4269 16.53C86.1035 17.7433 86.4419 19.3067 86.4419 21.22V32H80.9819V22.06C80.9819 20.5433 80.6435 19.4233 79.9669 18.7C79.3135 17.9767 78.3802 17.615 77.1669 17.615C76.3035 17.615 75.5219 17.8017 74.8219 18.175C74.1452 18.525 73.6085 19.0733 73.2119 19.82C72.8385 20.5667 72.6519 21.5233 72.6519 22.69V32H67.1919V13.17H72.4069V18.385L71.4269 16.81C72.1035 15.55 73.0719 14.5817 74.3319 13.905C75.5919 13.2283 77.0269 12.89 78.6369 12.89ZM100.873 32.28C98.7261 32.28 96.8361 31.86 95.2028 31.02C93.5928 30.18 92.3445 29.0367 91.4578 27.59C90.5711 26.12 90.1278 24.4517 90.1278 22.585C90.1278 20.695 90.5595 19.0267 91.4228 17.58C92.3095 16.11 93.5111 14.9667 95.0278 14.15C96.5445 13.31 98.2595 12.89 100.173 12.89C102.016 12.89 103.673 13.2867 105.143 14.08C106.636 14.85 107.814 15.97 108.678 17.44C109.541 18.8867 109.973 20.625 109.973 22.655C109.973 22.865 109.961 23.11 109.938 23.39C109.914 23.6467 109.891 23.8917 109.868 24.125H94.5728V20.94H106.998L104.898 21.885C104.898 20.905 104.699 20.0533 104.303 19.33C103.906 18.6067 103.358 18.0467 102.658 17.65C101.958 17.23 101.141 17.02 100.208 17.02C99.2745 17.02 98.4461 17.23 97.7228 17.65C97.0228 18.0467 96.4745 18.6183 96.0778 19.365C95.6811 20.0883 95.4828 20.9517 95.4828 21.955V22.795C95.4828 23.8217 95.7045 24.7317 96.1478 25.525C96.6145 26.295 97.2561 26.89 98.0728 27.31C98.9128 27.7067 99.8928 27.905 101.013 27.905C102.016 27.905 102.891 27.7533 103.638 27.45C104.408 27.1467 105.108 26.6917 105.738 26.085L108.643 29.235C107.779 30.215 106.694 30.9733 105.388 31.51C104.081 32.0233 102.576 32.28 100.873 32.28ZM117.571 32L110.781 13.17H115.926L121.561 29.375H119.111L124.991 13.17H129.611L135.316 29.375H132.866L138.676 13.17H143.506L136.681 32H131.396L126.391 18.105H128.001L122.821 32H117.571ZM152.106 32.28C150.496 32.28 148.944 32.0933 147.451 31.72C145.981 31.3233 144.814 30.8333 143.951 30.25L145.771 26.33C146.634 26.8667 147.649 27.31 148.816 27.66C150.006 27.9867 151.173 28.15 152.316 28.15C153.576 28.15 154.463 27.9983 154.976 27.695C155.513 27.3917 155.781 26.9717 155.781 26.435C155.781 25.9917 155.571 25.665 155.151 25.455C154.754 25.2217 154.218 25.0467 153.541 24.93C152.864 24.8133 152.118 24.6967 151.301 24.58C150.508 24.4633 149.703 24.3117 148.886 24.125C148.069 23.915 147.323 23.6117 146.646 23.215C145.969 22.8183 145.421 22.2817 145.001 21.605C144.604 20.9283 144.406 20.0533 144.406 18.98C144.406 17.79 144.744 16.74 145.421 15.83C146.121 14.92 147.124 14.2083 148.431 13.695C149.738 13.1583 151.301 12.89 153.121 12.89C154.404 12.89 155.711 13.03 157.041 13.31C158.371 13.59 159.479 13.9983 160.366 14.535L158.546 18.42C157.636 17.8833 156.714 17.5217 155.781 17.335C154.871 17.125 153.984 17.02 153.121 17.02C151.908 17.02 151.021 17.1833 150.461 17.51C149.901 17.8367 149.621 18.2567 149.621 18.77C149.621 19.2367 149.819 19.5867 150.216 19.82C150.636 20.0533 151.184 20.24 151.861 20.38C152.538 20.52 153.273 20.6483 154.066 20.765C154.883 20.8583 155.699 21.01 156.516 21.22C157.333 21.43 158.068 21.7333 158.721 22.13C159.398 22.5033 159.946 23.0283 160.366 23.705C160.786 24.3583 160.996 25.2217 160.996 26.295C160.996 27.4617 160.646 28.5 159.946 29.41C159.246 30.2967 158.231 30.9967 156.901 31.51C155.594 32.0233 153.996 32.28 152.106 32.28ZM166.43 32.28C165.496 32.28 164.691 31.965 164.015 31.335C163.361 30.6817 163.035 29.8533 163.035 28.85C163.035 27.8467 163.361 27.0417 164.015 26.435C164.691 25.805 165.496 25.49 166.43 25.49C167.386 25.49 168.191 25.805 168.845 26.435C169.498 27.0417 169.825 27.8467 169.825 28.85C169.825 29.8533 169.498 30.6817 168.845 31.335C168.191 31.965 167.386 32.28 166.43 32.28Z" fill="#CE0000"></path><path fill-rule="evenodd" clip-rule="evenodd" d="M10.5 22C10.5 20.5555 10.7716 19.1251 11.2993 17.7905C11.8269 16.4559 12.6004 15.2433 13.5754 14.2218C14.5504 13.2004 15.7079 12.3901 16.9818 11.8373C18.2557 11.2845 19.6211 11 21 11L21 9.53683e-08C18.2422 9.53683e-08 15.5115 0.56903 12.9636 1.67464C10.4158 2.78025 8.10075 4.40077 6.1508 6.44369C4.20074 8.4865 2.65388 10.9118 1.59852 13.581C0.543165 16.2501 -1.90733e-07 19.1109 -1.90733e-07 22L10.5 22Z" fill="#CE0000"></path></svg> 