<?xml version="1.0" encoding="UTF-8"?> <svg xmlns="http://www.w3.org/2000/svg" width="172" height="40" viewBox="0 0 172 40" fill="none"><path d="M32.765 13.17H37.945V28.85C37.945 35.85 34.165 39.07 27.375 39.07C23.805 39.07 20.34 38.195 18.135 36.48L20.305 32.56C21.915 33.855 24.54 34.695 26.955 34.695C30.805 34.695 32.485 32.945 32.485 29.55V28.745C31.05 30.32 28.985 31.09 26.535 31.09C21.32 31.09 17.12 27.485 17.12 21.99C17.12 16.495 21.32 12.89 26.535 12.89C29.16 12.89 31.33 13.765 32.765 15.585V13.17ZM27.62 26.61C30.49 26.61 32.555 24.755 32.555 21.99C32.555 19.225 30.49 17.37 27.62 17.37C24.75 17.37 22.65 19.225 22.65 21.99C22.65 24.755 24.75 26.61 27.62 26.61ZM54.1568 12.89C59.4418 12.89 63.5368 16.67 63.5368 22.585C63.5368 28.5 59.4418 32.28 54.1568 32.28C51.8118 32.28 49.8868 31.545 48.4868 30.005V38.79H43.0268V13.17H48.2418V15.34C49.6068 13.695 51.6368 12.89 54.1568 12.89ZM53.2118 27.8C55.9418 27.8 58.0068 25.84 58.0068 22.585C58.0068 19.33 55.9418 17.37 53.2118 17.37C50.4818 17.37 48.4168 19.33 48.4168 22.585C48.4168 25.84 50.4818 27.8 53.2118 27.8Z" fill="white"></path><path d="M78.6369 12.89C83.0819 12.89 86.4419 15.48 86.4419 21.22V32H80.9819V22.06C80.9819 19.015 79.5819 17.615 77.1669 17.615C74.5419 17.615 72.6519 19.225 72.6519 22.69V32H67.1919V13.17H72.4069V15.375C73.8769 13.765 76.0819 12.89 78.6369 12.89ZM110.041 22.655C110.041 23.075 109.971 23.67 109.936 24.125H95.6912C96.2162 26.47 98.2112 27.905 101.081 27.905C103.076 27.905 104.511 27.31 105.806 26.085L108.711 29.235C106.961 31.23 104.336 32.28 100.941 32.28C94.4312 32.28 90.1962 28.185 90.1962 22.585C90.1962 16.95 94.5012 12.89 100.241 12.89C105.771 12.89 110.041 16.6 110.041 22.655ZM100.276 17.02C97.7912 17.02 96.0062 18.525 95.6212 20.94H104.896C104.511 18.56 102.726 17.02 100.276 17.02ZM138.744 13.17H143.574L136.749 32H131.499L127.264 20.31L122.889 32H117.639L110.849 13.17H115.994L120.439 25.91L125.059 13.17H129.679L134.159 25.91L138.744 13.17ZM152.174 32.28C148.989 32.28 145.769 31.405 144.019 30.25L145.839 26.33C147.519 27.415 150.074 28.15 152.384 28.15C154.904 28.15 155.849 27.485 155.849 26.435C155.849 23.355 144.474 26.505 144.474 18.98C144.474 15.41 147.694 12.89 153.189 12.89C155.779 12.89 158.649 13.485 160.434 14.535L158.614 18.42C156.759 17.37 154.904 17.02 153.189 17.02C150.739 17.02 149.689 17.79 149.689 18.77C149.689 21.99 161.064 18.875 161.064 26.295C161.064 29.795 157.809 32.28 152.174 32.28ZM166.498 32.28C164.608 32.28 163.103 30.845 163.103 28.85C163.103 26.82 164.608 25.49 166.498 25.49C168.388 25.49 169.893 26.82 169.893 28.85C169.893 30.845 168.388 32.28 166.498 32.28Z" fill="#CE0000"></path><path fill-rule="evenodd" clip-rule="evenodd" d="M10.5 22C10.5 20.5555 10.7716 19.1251 11.2993 17.7905C11.8269 16.4559 12.6004 15.2433 13.5754 14.2218C14.5504 13.2004 15.7079 12.3901 16.9818 11.8373C18.2557 11.2845 19.6211 11 21 11L21 0C18.2422 0 15.5115 0.569031 12.9636 1.67464C10.4158 2.78025 8.10075 4.40077 6.1508 6.44369C4.20074 8.4865 2.65388 10.9118 1.59852 13.581C0.543165 16.2501 0 19.1109 0 22L10.5 22Z" fill="#CE0000"></path></svg> 